<mxfile>
    <diagram id="rDTn86ij1NuB6GkVqAhk" name="1">
        <mxGraphModel dx="1296" dy="790" grid="1" gridSize="10" guides="1" tooltips="1" connect="1" arrows="1" fold="1" page="1" pageScale="1" pageWidth="827" pageHeight="1169" math="0" shadow="0">
            <root>
                <mxCell id="0"/>
                <mxCell id="1" parent="0"/>
                <mxCell id="4" value="" style="rounded=0;whiteSpace=wrap;html=1;" vertex="1" parent="1">
                    <mxGeometry x="60" y="560" width="670" height="410" as="geometry"/>
                </mxCell>
                <mxCell id="26" value="" style="rounded=0;whiteSpace=wrap;html=1;" vertex="1" parent="1">
                    <mxGeometry x="60" y="560" width="120" height="410" as="geometry"/>
                </mxCell>
                <mxCell id="3" value="" style="rounded=0;whiteSpace=wrap;html=1;" vertex="1" parent="1">
                    <mxGeometry x="60" y="60" width="670" height="410" as="geometry"/>
                </mxCell>
                <mxCell id="5" value="&lt;font style=&quot;font-size: 36px&quot;&gt;Boon&lt;/font&gt;" style="text;html=1;strokeColor=none;fillColor=none;align=center;verticalAlign=middle;whiteSpace=wrap;rounded=0;" vertex="1" parent="1">
                    <mxGeometry x="120" y="100" width="110" height="50" as="geometry"/>
                </mxCell>
                <mxCell id="6" value="Ayuda a ayudar" style="text;html=1;strokeColor=none;fillColor=none;align=left;verticalAlign=middle;whiteSpace=wrap;rounded=0;" vertex="1" parent="1">
                    <mxGeometry x="130" y="150" width="170" height="20" as="geometry"/>
                </mxCell>
                <mxCell id="7" value="Ingresa a tu cuenta" style="rounded=1;fillColor=#0057D8;align=center;strokeColor=none;html=1;fontColor=#ffffff;fontSize=12" vertex="1" parent="1">
                    <mxGeometry x="480" y="80" width="126" height="33" as="geometry"/>
                </mxCell>
                <mxCell id="11" value="" style="shape=actor;whiteSpace=wrap;html=1;" vertex="1" parent="1">
                    <mxGeometry x="440" y="290" width="40" height="60" as="geometry"/>
                </mxCell>
                <mxCell id="13" value="" style="shape=actor;whiteSpace=wrap;html=1;" vertex="1" parent="1">
                    <mxGeometry x="580" y="250" width="40" height="60" as="geometry"/>
                </mxCell>
                <mxCell id="15" value="" style="shape=actor;whiteSpace=wrap;html=1;" vertex="1" parent="1">
                    <mxGeometry x="500" y="210" width="40" height="60" as="geometry"/>
                </mxCell>
                <mxCell id="17" value="Explorar" style="shape=offPageConnector;whiteSpace=wrap;html=1;size=0.375;" vertex="1" parent="1">
                    <mxGeometry x="370" y="420" width="80" height="40" as="geometry"/>
                </mxCell>
                <mxCell id="18" value="Regístrate" style="rounded=1;fillColor=#0057D8;align=center;strokeColor=none;html=1;fontColor=#ffffff;fontSize=12" vertex="1" parent="1">
                    <mxGeometry x="620" y="80" width="90" height="33" as="geometry"/>
                </mxCell>
                <mxCell id="22" value="&lt;font style=&quot;font-size: 36px&quot;&gt;Boon&lt;/font&gt;" style="text;html=1;strokeColor=none;fillColor=none;align=center;verticalAlign=middle;whiteSpace=wrap;rounded=0;" vertex="1" parent="1">
                    <mxGeometry x="65" y="570" width="110" height="50" as="geometry"/>
                </mxCell>
                <mxCell id="42" value="" style="strokeWidth=1;html=1;shadow=0;dashed=0;shape=mxgraph.android.rrect;rSize=0;strokeColor=#888888;fillColor=#444444;" vertex="1" parent="1">
                    <mxGeometry x="60" y="640" width="120" height="90" as="geometry"/>
                </mxCell>
                <mxCell id="43" value="Por categoría" style="strokeColor=inherit;fillColor=inherit;gradientColor=inherit;strokeWidth=1;html=1;shadow=0;dashed=0;shape=mxgraph.android.rrect;rSize=0;align=left;spacingLeft=10;fontSize=8;fontColor=#ffffff;" vertex="1" parent="42">
                    <mxGeometry width="120" height="22.5" as="geometry"/>
                </mxCell>
                <mxCell id="44" value="Por ubicación" style="strokeColor=inherit;fillColor=inherit;gradientColor=inherit;strokeWidth=1;html=1;shadow=0;dashed=0;shape=mxgraph.android.rrect;rSize=0;align=left;spacingLeft=10;fontSize=8;fontColor=#ffffff;" vertex="1" parent="42">
                    <mxGeometry y="22.5" width="120" height="22.5" as="geometry"/>
                </mxCell>
                <mxCell id="45" value="Por nececidades" style="strokeColor=inherit;fillColor=inherit;gradientColor=inherit;strokeWidth=1;html=1;shadow=0;dashed=0;shape=mxgraph.android.rrect;rSize=0;align=left;spacingLeft=10;fontSize=8;fontColor=#ffffff;" vertex="1" parent="42">
                    <mxGeometry y="45" width="120" height="22.5" as="geometry"/>
                </mxCell>
                <mxCell id="46" value="Menu Item 4" style="strokeColor=inherit;fillColor=inherit;gradientColor=inherit;strokeWidth=1;html=1;shadow=0;dashed=0;shape=mxgraph.android.rrect;rSize=0;align=left;spacingLeft=10;fontSize=8;fontColor=#ffffff;" vertex="1" parent="42">
                    <mxGeometry y="67.5" width="120" height="22.5" as="geometry"/>
                </mxCell>
                <mxCell id="48" value="" style="shape=rect;fillColor=#e0e0e0;strokeColor=none;" vertex="1" parent="1">
                    <mxGeometry x="546" y="575" width="164" height="20" as="geometry"/>
                </mxCell>
                <mxCell id="49" value="" style="html=1;strokeWidth=1;shadow=0;dashed=0;shape=mxgraph.ios7ui.marginRect;rx=3;ry=3;rectMargin=5;strokeColor=none;" vertex="1" parent="48">
                    <mxGeometry width="164" height="20" as="geometry"/>
                </mxCell>
                <mxCell id="50" value="Buscar" style="shape=mxgraph.ios7.icons.looking_glass;strokeColor=#e0e0e0;fillColor=none;fontColor=#e0e0e0;labelPosition=right;verticalLabelPosition=middle;align=left;verticalAlign=middle;fontSize=6;fontStyle=0;spacingTop=2;" vertex="1" parent="48">
                    <mxGeometry x="0.5" y="0.5" width="6" height="6" relative="1" as="geometry">
                        <mxPoint x="-17" y="-3" as="offset"/>
                    </mxGeometry>
                </mxCell>
                <mxCell id="52" value="&lt;font style=&quot;font-size: 18px&quot;&gt;Campañas activas&lt;/font&gt;" style="text;html=1;strokeColor=none;fillColor=none;align=center;verticalAlign=middle;whiteSpace=wrap;rounded=0;" vertex="1" parent="1">
                    <mxGeometry x="190" y="585" width="190" height="20" as="geometry"/>
                </mxCell>
                <mxCell id="53" value="" style="html=1;shadow=0;dashed=0;shape=mxgraph.bootstrap.rrect;rSize=5;strokeColor=#DFDFDF;html=1;whiteSpace=wrap;fillColor=#ffffff;fontColor=#000000;verticalAlign=bottom;align=left;spacing=20;spacingBottom=50;fontSize=14;" vertex="1" parent="1">
                    <mxGeometry x="200" y="630" width="140" height="150" as="geometry"/>
                </mxCell>
                <mxCell id="54" value="Image cap" style="html=1;shadow=0;dashed=0;shape=mxgraph.bootstrap.topButton;rSize=5;perimeter=none;whiteSpace=wrap;fillColor=#868E96;strokeColor=#DFDFDF;fontColor=#DEE2E6;resizeWidth=1;fontSize=18;" vertex="1" parent="53">
                    <mxGeometry width="140" height="70" relative="1" as="geometry"/>
                </mxCell>
                <mxCell id="55" value="&lt;font style=&quot;font-size: 12px&quot;&gt;Go somewhere&lt;/font&gt;" style="html=1;shadow=0;dashed=0;shape=mxgraph.bootstrap.rrect;rSize=5;perimeter=none;whiteSpace=wrap;fillColor=#0085FC;strokeColor=none;fontColor=#ffffff;resizeWidth=1;fontSize=14;" vertex="1" parent="53">
                    <mxGeometry y="1" width="100" height="20" relative="1" as="geometry">
                        <mxPoint x="20" y="-30" as="offset"/>
                    </mxGeometry>
                </mxCell>
                <mxCell id="56" value="" style="html=1;shadow=0;dashed=0;shape=mxgraph.bootstrap.rrect;rSize=5;strokeColor=#DFDFDF;html=1;whiteSpace=wrap;fillColor=#ffffff;fontColor=#000000;verticalAlign=bottom;align=left;spacing=20;spacingBottom=50;fontSize=14;" vertex="1" parent="1">
                    <mxGeometry x="380" y="630" width="140" height="150" as="geometry"/>
                </mxCell>
                <mxCell id="57" value="Image cap" style="html=1;shadow=0;dashed=0;shape=mxgraph.bootstrap.topButton;rSize=5;perimeter=none;whiteSpace=wrap;fillColor=#868E96;strokeColor=#DFDFDF;fontColor=#DEE2E6;resizeWidth=1;fontSize=18;" vertex="1" parent="56">
                    <mxGeometry width="140" height="70" relative="1" as="geometry"/>
                </mxCell>
                <mxCell id="58" value="&lt;font style=&quot;font-size: 12px&quot;&gt;Go somewhere&lt;/font&gt;" style="html=1;shadow=0;dashed=0;shape=mxgraph.bootstrap.rrect;rSize=5;perimeter=none;whiteSpace=wrap;fillColor=#0085FC;strokeColor=none;fontColor=#ffffff;resizeWidth=1;fontSize=14;" vertex="1" parent="56">
                    <mxGeometry y="1" width="100" height="20" relative="1" as="geometry">
                        <mxPoint x="20" y="-30" as="offset"/>
                    </mxGeometry>
                </mxCell>
                <mxCell id="59" value="" style="html=1;shadow=0;dashed=0;shape=mxgraph.bootstrap.rrect;rSize=5;strokeColor=#DFDFDF;html=1;whiteSpace=wrap;fillColor=#ffffff;fontColor=#000000;verticalAlign=bottom;align=left;spacing=20;spacingBottom=50;fontSize=14;" vertex="1" parent="1">
                    <mxGeometry x="558" y="630" width="140" height="150" as="geometry"/>
                </mxCell>
                <mxCell id="60" value="Image cap" style="html=1;shadow=0;dashed=0;shape=mxgraph.bootstrap.topButton;rSize=5;perimeter=none;whiteSpace=wrap;fillColor=#868E96;strokeColor=#DFDFDF;fontColor=#DEE2E6;resizeWidth=1;fontSize=18;" vertex="1" parent="59">
                    <mxGeometry width="140" height="70" relative="1" as="geometry"/>
                </mxCell>
                <mxCell id="61" value="&lt;font style=&quot;font-size: 12px&quot;&gt;Go somewhere&lt;/font&gt;" style="html=1;shadow=0;dashed=0;shape=mxgraph.bootstrap.rrect;rSize=5;perimeter=none;whiteSpace=wrap;fillColor=#0085FC;strokeColor=none;fontColor=#ffffff;resizeWidth=1;fontSize=14;" vertex="1" parent="59">
                    <mxGeometry y="1" width="100" height="20" relative="1" as="geometry">
                        <mxPoint x="20" y="-30" as="offset"/>
                    </mxGeometry>
                </mxCell>
                <mxCell id="62" value="&lt;font style=&quot;font-size: 18px&quot;&gt;Nuevas agrupaciones&lt;/font&gt;" style="text;html=1;strokeColor=none;fillColor=none;align=center;verticalAlign=middle;whiteSpace=wrap;rounded=0;" vertex="1" parent="1">
                    <mxGeometry x="190" y="810" width="200" height="20" as="geometry"/>
                </mxCell>
                <mxCell id="63" value="" style="html=1;shadow=0;dashed=0;shape=mxgraph.bootstrap.rrect;rSize=5;strokeColor=#DFDFDF;html=1;whiteSpace=wrap;fillColor=#ffffff;fontColor=#000000;verticalAlign=top;align=left;spacing=20;fontSize=14;spacingLeft=170;" vertex="1" parent="1">
                    <mxGeometry x="220" y="840" width="210" height="100" as="geometry"/>
                </mxCell>
                <mxCell id="64" value="Image" style="html=1;shadow=0;dashed=0;shape=mxgraph.bootstrap.leftButton;rSize=5;perimeter=none;whiteSpace=wrap;fillColor=#868E96;strokeColor=#DFDFDF;fontColor=#DEE2E6;resizeWidth=1;fontSize=18;" vertex="1" parent="63">
                    <mxGeometry width="70" height="100" relative="1" as="geometry"/>
                </mxCell>
                <mxCell id="65" value="&lt;b&gt;Lorem&lt;br&gt;Lorem ipsum y dodo eso&lt;/b&gt;" style="text;html=1;strokeColor=none;fillColor=none;align=center;verticalAlign=middle;whiteSpace=wrap;rounded=0;" vertex="1" parent="63">
                    <mxGeometry x="80" y="10" width="120" height="70" as="geometry"/>
                </mxCell>
                <mxCell id="66" value="" style="html=1;shadow=0;dashed=0;shape=mxgraph.bootstrap.rrect;rSize=5;strokeColor=#DFDFDF;html=1;whiteSpace=wrap;fillColor=#ffffff;fontColor=#000000;verticalAlign=top;align=left;spacing=20;fontSize=14;spacingLeft=170;" vertex="1" parent="1">
                    <mxGeometry x="470" y="840" width="210" height="100" as="geometry"/>
                </mxCell>
                <mxCell id="67" value="Image" style="html=1;shadow=0;dashed=0;shape=mxgraph.bootstrap.leftButton;rSize=5;perimeter=none;whiteSpace=wrap;fillColor=#868E96;strokeColor=#DFDFDF;fontColor=#DEE2E6;resizeWidth=1;fontSize=18;" vertex="1" parent="66">
                    <mxGeometry width="70" height="100" relative="1" as="geometry"/>
                </mxCell>
                <mxCell id="68" value="&lt;b&gt;Lorem&lt;br&gt;Lorem ipsum y dodo eso&lt;/b&gt;" style="text;html=1;strokeColor=none;fillColor=none;align=center;verticalAlign=middle;whiteSpace=wrap;rounded=0;" vertex="1" parent="66">
                    <mxGeometry x="80" y="10" width="120" height="70" as="geometry"/>
                </mxCell>
                <mxCell id="qoYa24rSR5KsKaIxx-MU-68" value="Ingresar" style="rounded=1;fillColor=#0057D8;align=center;strokeColor=none;html=1;fontColor=#ffffff;fontSize=12" vertex="1" parent="1">
                    <mxGeometry x="82" y="910" width="76" height="19.9" as="geometry"/>
                </mxCell>
                <mxCell id="qoYa24rSR5KsKaIxx-MU-69" value="Regístrate" style="rounded=1;fillColor=#0057D8;align=center;strokeColor=none;html=1;fontColor=#ffffff;fontSize=12" vertex="1" parent="1">
                    <mxGeometry x="83" y="937" width="75" height="23" as="geometry"/>
                </mxCell>
            </root>
        </mxGraphModel>
    </diagram>
</mxfile>